<?xml version="1.0" encoding="utf-8"?>
<!-- Generator: Adobe Illustrator 16.0.4, SVG Export Plug-In . SVG Version: 6.00 Build 0)  -->
<!DOCTYPE svg PUBLIC "-//W3C//DTD SVG 1.1//EN" "http://www.w3.org/Graphics/SVG/1.1/DTD/svg11.dtd">
<svg version="1.1" id="Layer_1" xmlns="http://www.w3.org/2000/svg" xmlns:xlink="http://www.w3.org/1999/xlink" x="0px" y="0px"
	 width="127px" height="45px" viewBox="0 0 127 45" enable-background="new 0 0 127 45" xml:space="preserve">
<g>
	<g>
		<path fill="#6A7397" d="M49.3,44.6l5.9-11.5h1.5l5.9,11.5H61L59.2,41h-6.3l-1.8,3.6H49.3z M55.9,34.8L53.3,40h5.2L55.9,34.8z"/>
		<path fill="#6A7397" d="M64.6,44.6V33.1H66v11.5H64.6z"/>
		<path fill="#6A7397" d="M69,44.6V33.1h1.4v11.5H69z"/>
		<path fill="#6A7397" d="M73.3,33.1h1.4v1.4h-1.4V33.1z M73.3,44.6v-8.5h1.4v8.5H73.3z"/>
		<path fill="#6A7397" d="M77.3,40.4c0-0.601,0.101-1.2,0.4-1.7s0.7-1,1.2-1.4C79.4,36.9,80,36.6,80.6,36.4
			c0.7-0.2,1.301-0.301,2-0.301c0.801,0,1.5,0.101,2.2,0.4s1.3,0.6,1.8,1.1v-1.3H88v8.5h-1.4v-1.3c-0.5,0.5-1.1,0.8-1.8,1.1
			C84.1,44.9,83.4,45,82.6,45c-0.699,0-1.399-0.1-2-0.3C79.9,44.5,79.4,44.2,78.9,43.8C78.4,43.4,78,42.9,77.7,42.4
			C77.4,41.6,77.3,41,77.3,40.4z M82.6,37c-1.1,0-2.1,0.3-2.8,1c-0.7,0.6-1.1,1.4-1.1,2.4s0.399,1.8,1.1,2.399
			c0.7,0.601,1.7,1,2.8,1c1.101,0,2.101-0.3,2.801-1c0.699-0.6,1.1-1.399,1.1-2.399S86.1,38.6,85.4,38C84.7,37.3,83.8,37,82.6,37z"
			/>
		<path fill="#6A7397" d="M91.2,44.6v-8.5H92.6V37c0.9-0.8,2-1.1,3.2-1.1c1.3,0,2.3,0.399,3.101,1.1c0.8,0.7,1.199,1.6,1.199,2.7
			V44.6H98.7V39.7c0-0.8-0.3-1.4-0.8-1.9C97.3,37.3,96.6,37,95.8,37c-0.899,0-1.7,0.3-2.2,0.8C93,38.3,92.7,39,92.7,39.7V44.6H91.2z
			"/>
		<path fill="#6A7397" d="M102.7,40.4c0-1.301,0.5-2.301,1.6-3.2c1-0.9,2.3-1.3,3.9-1.3c1.1,0,2.1,0.199,3,0.6
			c0.899,0.4,1.5,1,2,1.8H111.6C110.9,37.4,109.7,36.9,108.3,36.9c-1.2,0-2.2,0.3-2.899,0.899c-0.801,0.601-1.101,1.4-1.101,2.4
			s0.4,1.8,1.101,2.399c0.8,0.601,1.699,0.9,2.899,0.9c0.7,0,1.3-0.1,1.9-0.3c0.6-0.2,1-0.5,1.399-1h1.601c-0.5,0.8-1.2,1.3-2,1.8
			c-0.8,0.4-1.8,0.6-2.9,0.6c-1.6,0-2.899-0.399-3.899-1.3C103.2,42.7,102.7,41.6,102.7,40.4z"/>
		<path fill="#6A7397" d="M115.3,40.4c0-0.601,0.101-1.2,0.4-1.7s0.7-1,1.1-1.4c0.5-0.399,1.101-0.7,1.7-0.899
			c0.7-0.2,1.3-0.301,2.1-0.301c1.5,0,2.801,0.4,3.801,1.301c1,0.899,1.6,2,1.6,3.3h-9.3c0,0.899,0.399,1.7,1.2,2.3
			c0.699,0.6,1.699,0.9,2.8,0.9c0.8,0,1.5-0.2,2.1-0.5C123.4,43.1,123.9,42.6,124.2,42h1.5c-0.4,0.9-1,1.7-2,2.2
			c-0.9,0.5-2,0.8-3.101,0.8c-0.699,0-1.399-0.1-2.1-0.3s-1.2-0.5-1.7-0.9c-0.5-0.399-0.899-0.899-1.1-1.399
			C115.5,41.6,115.3,41,115.3,40.4z M124.5,39.5c-0.2-0.7-0.6-1.3-1.3-1.8s-1.5-0.7-2.5-0.7s-1.8,0.2-2.5,0.7s-1.101,1.1-1.3,1.8
			H124.5z"/>
	</g>
	<g>
		<path fill="#004B84" d="M13.2,14.1"/>
		<g>
			<circle fill="#6A7397" cx="40.5" cy="4.8" r="4.8"/>
			<path fill="#1B3461" d="M20.1,21.8c0,0,1-1.6,4.6-5.6c3.6-4,4.6-4.8,5.2-5.3c1.2-1,2.7-1.3,3.5-0.6c1,0.9,0.4,2.4,0.4,2.4
				s1.9,1.2,3.5,2.5c0.8,0.7,2,1.7,3.5,3.4c1.6,1.8,2.2,3,2.2,3c4.3-7.1,1.7-12.1,1.7-12.2s0,0-0.1,0c-2.1,1.9-6.2,2.2-8.6-0.6
				c-1.8-2.1-1.9-5.3-0.6-7.2C31.7,1,29.9,1.5,28,2.1c-2.6,0.9-4.3,1.8-7.3,4.2C18.4,8.2,17.9,8.4,13,14c0,0,0.5,0.9,1.2,1.9
				c0.5,0.7,1.3,1.5,1.9,2.1C17.4,19.4,20.1,21.8,20.1,21.8z"/>
		</g>
		<g>
			<circle fill="#6A7397" cx="5.2" cy="5" r="4.8"/>
			<path fill="#1B3461" d="M22.2,25.5c0,0-1.6-1-5.6-4.6s-4.8-4.6-5.3-5.2c-1-1.2-1.3-2.7-0.6-3.5c0.9-1,2.4-0.4,2.4-0.4
				s1.2-1.9,2.5-3.5c0.7-0.8,1.7-2,3.4-3.5c1.8-1.6,3-2.2,3-2.2C15-1.6,10,1,9.9,1s0,0,0,0.1c1.9,2.1,2.2,6.2-0.6,8.6
				c-2.1,1.8-5.3,1.9-7.2,0.6C1.5,14,2,15.8,2.6,17.6c0.9,2.6,1.8,4.3,4.2,7.3c1.8,2.3,2.1,2.699,7.6,7.6c0,0,0.9-0.5,1.9-1.2
				c0.7-0.5,1.5-1.3,2.1-1.899C19.8,28.2,22.2,25.5,22.2,25.5z"/>
		</g>
		<g>
			<circle fill="#6A7397" cx="5.4" cy="40" r="4.8"/>
			<path fill="#1B3461" d="M25.8,23c0,0-1,1.6-4.6,5.6c-3.6,4-4.6,4.801-5.2,5.301c-1.2,1-2.7,1.3-3.5,0.6c-1-0.9-0.4-2.4-0.4-2.4
				s-1.9-1.199-3.5-2.5C7.8,28.9,6.6,27.9,5.1,26.2C3.6,24.3,3,23,3,23c-4.3,7.1-1.7,12.1-1.7,12.2c0,0.1,0,0,0.1,0
				c2.1-1.9,6.2-2.2,8.6,0.6c1.8,2.101,1.9,5.3,0.6,7.2c3.7,0.6,5.5,0.1,7.4-0.5c2.6-0.9,4.3-1.8,7.3-4.2c2.3-1.8,2.7-2.1,7.6-7.6
				c0,0-0.5-0.9-1.2-1.9c-0.5-0.7-1.3-1.5-1.9-2.1C28.5,25.4,25.8,23,25.8,23z"/>
		</g>
		<g>
			<circle fill="#6A7397" cx="40.4" cy="39.9" r="4.8"/>
			<path fill="#1B3461" d="M23.4,19.5c0,0,1.6,1,5.6,4.6c4,3.601,4.8,4.601,5.3,5.2c1,1.2,1.3,2.7,0.6,3.5c-0.9,1-2.4,0.4-2.4,0.4
				S31.3,35.1,30,36.7c-0.7,0.8-1.7,2-3.4,3.5c-1.8,1.6-3,2.2-3,2.2c7.1,4.3,12.1,1.699,12.2,1.699c0.1,0,0,0,0-0.1
				c-1.9-2.1-2.2-6.2,0.6-8.6c2.1-1.801,5.3-1.9,7.2-0.601c0.6-3.7,0.1-5.5-0.5-7.399c-0.9-2.601-1.8-4.301-4.2-7.3
				c-1.8-2.3-2.1-2.7-7.6-7.6c0,0-0.9,0.5-1.9,1.2c-0.7,0.5-1.5,1.3-2.1,1.9C25.8,16.8,23.4,19.5,23.4,19.5z"/>
		</g>
	</g>
	<g>
		<path fill="#1B3461" d="M61.4,31.5L48.6,0.6h6.9l8.7,22.2l8.7-22.2H79.8L66.9,31.5H61.4z"/>
	</g>
	<g>
		<path fill="#1B3461" d="M81.5,31.4V0.5H88v12h11.9v-12h6.399v30.9H99.9V18.1H88v13.3H81.5z"/>
	</g>
	<g>
		<path fill="#1B3461" d="M125.9,25.8V31.4h-16.2V0.5h6.3v25.3H125.9z"/>
	</g>
</g>
</svg>
